<svg xmlns="http://www.w3.org/2000/svg" viewBox="0 0 640 360" preserveAspectRatio="xMidYMid slice">
  <defs>
    <linearGradient id="bg" x1="0" y1="0" x2="1" y2="1">
      <stop offset="0%" stop-color="#1a0d2e" />
      <stop offset="50%" stop-color="#4e117f" />
      <stop offset="100%" stop-color="#b21f3a" />
    </linearGradient>
  </defs>
  <rect width="640" height="360" rx="28" fill="url(#bg)" />
  <circle cx="120" cy="76" r="98" fill="rgba(255,255,255,0.10)" />
  <circle cx="520" cy="296" r="122" fill="rgba(255,255,255,0.08)" />
  <g transform="translate(84 74)" fill="none" stroke="#fff3f7" stroke-width="10" stroke-linecap="round" stroke-linejoin="round">
    <path d="M0 94c36-46 72-69 108-69 35 0 62 15 87 41 25 24 46 36 74 36 30 0 59-14 90-42" opacity="0.92" />
    <path d="M0 132c39-48 80-72 122-72 35 0 64 14 89 40 25 24 47 36 74 36 27 0 56-13 86-38" opacity="0.72" />
  </g>
  <text x="84" y="236" fill="#ffffff" font-family="Arial, sans-serif" font-size="56" font-weight="800">OUTROS BANCOS</text>
  <text x="88" y="282" fill="rgba(255,236,243,0.88)" font-family="Arial, sans-serif" font-size="22" font-weight="700" letter-spacing="2">NOVOS CURSOS BANCARIOS EM BREVE</text>
</svg>