<svg xmlns="http://www.w3.org/2000/svg" viewBox="0 0 128 128" role="img" aria-label="Beto Banco">
  <title>Beto Banco</title>
  <defs>
    <linearGradient id="ouro" x1="0" y1="0" x2="0.35" y2="1">
      <stop offset="0%" stop-color="#ffd873" />
      <stop offset="28%" stop-color="#ffc300" />
      <stop offset="62%" stop-color="#e0a300" />
      <stop offset="100%" stop-color="#c98f05" />
    </linearGradient>
  </defs>

  <!--
    O favicon tem fundo próprio, ao contrário de marca/simbolo.svg: a aba do
    navegador não garante cor nenhuma atrás do ícone, e um B dourado sobre
    fundo claro some. O quadrado escuro é o mesmo #000814 da plataforma.
  -->
  <rect width="128" height="128" rx="26" fill="#000814" />

  <!-- Mesmo desenho do símbolo, deslocado e escalado para a margem do ícone. -->
  <g transform="translate(17.5 17) scale(0.94)">
    <path fill="url(#ouro)" fill-rule="evenodd" d="
      M20 8 H63
      C81 8 92 17.5 92 29.5
      C92 39 86.5 46.2 77.5 49.4
      C88.5 52.4 96.5 61 96.5 72
      C96.5 85 84.5 92 65 92
      H20 Z

      M31 22 H62
      C70.5 22 75.5 25.8 75.5 31.5
      C75.5 37.2 70.5 41 62 41
      H45 L31 79 Z

      M49 52 H64
      C74.5 52 80.5 58 80.5 66.5
      C80.5 75 74.5 80 64 80
      H37 Z
    " />
  </g>
</svg>
